<svg width="135" height="12" viewBox="0 0 135 12" fill="none" xmlns="http://www.w3.org/2000/svg">
<path d="M7.86197 0.569999L5.14597 9.054L2.42997 0.569999H0.469972L3.95597 11H6.33597L9.82197 0.569999H7.86197ZM13.4807 11H15.2447V0.569999H13.4807V11ZM23.4447 11.168C25.6567 11.168 27.1547 9.95 27.1547 8.144C27.1547 6.744 26.2727 5.82 24.5507 5.288L22.5767 4.686C21.7367 4.434 21.2887 3.958 21.2887 3.314C21.2887 2.516 22.0167 1.956 23.1087 1.956C24.2987 1.956 25.1947 2.586 25.5727 3.692L27.0987 2.992C26.5667 1.522 25.0687 0.402 23.0947 0.402C20.9667 0.402 19.5107 1.62 19.5107 3.398C19.5107 4.742 20.3507 5.778 22.0727 6.296L24.1167 6.926C24.9427 7.178 25.3767 7.556 25.3767 8.27C25.3767 9.04 24.6207 9.614 23.4447 9.614C22.2547 9.614 21.1767 8.9 20.6867 7.598L19.1747 8.284C19.7067 9.964 21.3867 11.168 23.4447 11.168ZM31.1398 11H32.9038V0.569999H31.1398V11ZM42.3779 11.168C45.4439 11.168 47.7959 8.872 47.7959 5.778C47.7959 2.684 45.4439 0.402 42.3779 0.402C39.3119 0.402 36.9739 2.684 36.9739 5.778C36.9739 8.872 39.3259 11.168 42.3779 11.168ZM42.3779 9.544C40.2919 9.544 38.7379 7.934 38.7379 5.778C38.7379 3.636 40.2779 2.026 42.3779 2.026C44.4779 2.026 46.0179 3.636 46.0179 5.778C46.0179 7.934 44.4779 9.544 42.3779 9.544ZM58.3711 0.569999V7.584L53.2751 0.569999H51.8751V11H53.6391V3.916L58.7351 11H60.1491V0.569999H58.3711ZM75.8623 0.569999V7.304C75.8623 8.634 74.9243 9.572 73.5943 9.572C72.2503 9.572 71.3123 8.648 71.3123 7.304V0.569999H69.5343V7.304C69.5343 9.544 71.1443 11.168 73.5943 11.168C76.0303 11.168 77.6543 9.544 77.6543 7.304V0.569999H75.8623ZM82.0621 11H83.8261V0.569999H82.0621V11ZM93.2271 11H94.9911V6.716H99.6671V5.176H94.9911V2.124H100.199V0.569999H93.2271V11ZM104.06 11H105.824V7.108H107.98L110.178 11H112.194L109.786 6.8C110.976 6.324 111.718 5.288 111.718 3.846C111.718 1.774 110.22 0.569999 108.078 0.569999H104.06V11ZM105.824 5.568V2.124H108.078C109.184 2.124 109.926 2.81 109.926 3.846C109.926 4.882 109.184 5.568 108.078 5.568H105.824ZM116.109 11H122.997L123.011 9.446H117.873V6.548H122.731V4.994H117.873V2.124H123.011V0.569999H116.109V11ZM127.146 11H134.034L134.048 9.446H128.91V6.548H133.768V4.994H128.91V2.124H134.048V0.569999H127.146V11Z" fill="url(#paint0_linear_580_4332)"/>
<defs>
<linearGradient id="paint0_linear_580_4332" x1="103.279" y1="2" x2="124.185" y2="29.9291" gradientUnits="userSpaceOnUse">
<stop stop-color="white"/>
<stop offset="1" stop-color="#757A8C" stop-opacity="0"/>
</linearGradient>
</defs>
</svg>
