<svg width="111" height="14" viewBox="0 0 111 14" fill="none" xmlns="http://www.w3.org/2000/svg">
<path d="M2.874 13.52H4.624C3.308 11.49 2.65 9.33403 2.65 7.03803C2.65 4.74203 3.294 2.62803 4.624 0.570029H2.874C1.264 2.44603 0.48 4.58803 0.48 7.03803C0.48 9.48803 1.278 11.644 2.874 13.52ZM8.09731 9.25003H9.84731V6.89803H12.1853V5.14803H9.84731V2.81003H8.09731V5.14803H5.74531V6.89803H8.09731V9.25003ZM17.5942 4.12603C17.0622 4.12603 16.6282 4.22403 16.2642 4.43403L16.6002 2.37603L20.7442 2.39003V0.570029H15.1302L14.1502 6.40803L15.8582 6.82803C16.0962 6.24003 16.5442 5.94603 17.1882 5.94603C18.1542 5.94603 18.8122 6.60403 18.8122 7.57003C18.8122 8.55003 18.1542 9.20803 17.1882 9.20803C16.3342 9.20803 15.6062 8.69003 15.3122 7.90603L13.5902 8.88603C14.0802 10.258 15.5082 11.168 17.1882 11.168C19.3722 11.168 20.9822 9.57203 20.9822 7.43003C20.9822 5.48403 19.5962 4.12603 17.5942 4.12603ZM21.6091 13.52H23.3591C24.9551 11.644 25.7531 9.48803 25.7531 7.03803C25.7531 4.58803 24.9691 2.44603 23.3591 0.570029H21.6091C22.9391 2.62803 23.5831 4.74203 23.5831 7.03803C23.5831 9.33403 22.9251 11.49 21.6091 13.52ZM38.518 3.18803C37.482 3.18803 36.628 3.66403 36.194 4.36403C35.704 3.59403 34.892 3.18803 33.912 3.18803C32.988 3.18803 32.274 3.55203 31.91 4.28003V3.35603H29.95V11H32.05V6.53403C32.05 5.59603 32.554 5.07803 33.296 5.07803C34.038 5.07803 34.542 5.59603 34.542 6.53403V11H36.642V6.53403C36.642 5.59603 37.146 5.07803 37.888 5.07803C38.63 5.07803 39.134 5.59603 39.134 6.53403V11H41.234V6.08603C41.234 4.32203 40.114 3.18803 38.518 3.18803ZM46.1688 11.168C48.4368 11.168 50.2568 9.48803 50.2568 7.17803C50.2568 4.86803 48.4368 3.18803 46.1688 3.18803C43.9008 3.18803 42.0808 4.86803 42.0808 7.17803C42.0808 9.48803 43.9008 11.168 46.1688 11.168ZM46.1688 9.27803C45.0208 9.27803 44.2508 8.41003 44.2508 7.17803C44.2508 5.96003 45.0208 5.07803 46.1688 5.07803C47.3168 5.07803 48.0868 5.96003 48.0868 7.17803C48.0868 8.41003 47.3168 9.27803 46.1688 9.27803ZM55.2691 3.27203C54.3311 3.27203 53.5891 3.55203 53.1971 4.50403V3.35603H51.2371V11H53.3371V6.88403C53.3371 5.75003 54.0371 5.09203 55.0591 5.09203H56.0671V3.27203H55.2691ZM64.1489 6.95403C64.1489 4.84003 62.4969 3.18803 60.3549 3.18803C58.1709 3.18803 56.4909 4.88203 56.4909 7.16403C56.4909 9.37603 58.0729 11.168 60.4949 11.168C62.0629 11.168 63.3229 10.426 63.7849 9.30603L62.1049 8.50803C61.8109 9.02603 61.2649 9.34803 60.5229 9.34803C59.4869 9.34803 58.8009 8.73203 58.6749 7.76603H64.0509C64.1209 7.55603 64.1489 7.26203 64.1489 6.95403ZM58.7169 6.22603C58.9269 5.34403 59.5289 4.86803 60.3549 4.86803C61.2229 4.86803 61.8389 5.41403 61.9229 6.22603H58.7169Z" fill="#01B574"/>
<path d="M67.5093 2.20803H68.7133V0.570029H67.5093V2.20803ZM67.5093 11H68.7133V3.58003H67.5093V11ZM73.7694 3.41203C72.8594 3.41203 72.0614 3.79003 71.6274 4.43403V3.58003H70.4514V11H71.6554V6.50603C71.6554 5.34403 72.3974 4.57403 73.5034 4.57403C74.6234 4.57403 75.3374 5.33003 75.3374 6.50603V11H76.5414V6.11403C76.5414 4.56003 75.3794 3.41203 73.7694 3.41203ZM80.4546 11H87.2866V9.85203H82.2606L84.8366 7.13603C86.3486 5.55403 87.0346 4.49003 87.0346 3.32803C87.0346 1.60603 85.7046 0.402029 83.8426 0.402029C82.1766 0.402029 80.8466 1.29803 80.3706 2.71203L81.4206 3.24403C81.7986 2.16603 82.6386 1.57803 83.8146 1.57803C85.0046 1.57803 85.7046 2.23603 85.7046 3.38403C85.7046 4.44803 85.0466 5.27403 83.3386 7.08003L80.4406 10.104L80.4546 11ZM93.0784 11.168C95.5564 11.168 97.2084 9.01203 97.2084 5.77803C97.2084 2.55803 95.5564 0.402029 93.0644 0.402029C90.6004 0.402029 88.9344 2.55803 88.9344 5.77803C88.9344 8.99803 90.6144 11.168 93.0784 11.168ZM93.0784 9.93603C91.3844 9.93603 90.2644 8.28403 90.2644 5.77803C90.2644 3.27203 91.3704 1.63403 93.0644 1.63403C94.7724 1.63403 95.8924 3.27203 95.8924 5.77803C95.8924 8.29803 94.7724 9.93603 93.0784 9.93603ZM98.8022 11H105.634V9.85203H100.608L103.184 7.13603C104.696 5.55403 105.382 4.49003 105.382 3.32803C105.382 1.60603 104.052 0.402029 102.19 0.402029C100.524 0.402029 99.1942 1.29803 98.7182 2.71203L99.7682 3.24403C100.146 2.16603 100.986 1.57803 102.162 1.57803C103.352 1.57803 104.052 2.23603 104.052 3.38403C104.052 4.44803 103.394 5.27403 101.686 7.08003L98.7882 10.104L98.8022 11ZM108.766 11H110.096V0.570029H106.806V1.71803H108.766V11Z" fill="#A0AEC0"/>
</svg>
