<svg width="130" height="14" viewBox="0 0 130 14" fill="none" xmlns="http://www.w3.org/2000/svg">
<path d="M2.874 13.52H4.624C3.308 11.49 2.65 9.334 2.65 7.038C2.65 4.742 3.294 2.628 4.624 0.569998H2.874C1.264 2.446 0.48 4.588 0.48 7.038C0.48 9.488 1.278 11.644 2.874 13.52ZM8.09731 9.25H9.84731V6.898H12.1853V5.148H9.84731V2.81H8.09731V5.148H5.74531V6.898H8.09731V9.25ZM13.6042 11H20.6882V9.18H16.2782L18.7002 6.688C19.9462 5.414 20.5622 4.462 20.5622 3.328C20.5622 1.578 19.2182 0.401999 17.2302 0.401999C15.4942 0.401999 14.1082 1.284 13.6322 2.684L15.3402 3.664C15.6202 2.852 16.2782 2.362 17.0902 2.362C17.8882 2.362 18.3922 2.838 18.3922 3.594C18.3922 4.252 18.0282 4.742 16.3902 6.436L13.5902 9.32L13.6042 11ZM26.544 4.546L28.588 2.25V0.569998H22.078V2.39H26.166L23.478 5.302L23.982 6.352C24.318 6.184 24.738 6.086 25.158 6.086C26.208 6.086 26.838 6.674 26.838 7.626C26.838 8.592 26.18 9.208 25.158 9.208C24.262 9.208 23.618 8.746 23.31 7.906L21.602 8.886C22.12 10.286 23.492 11.168 25.158 11.168C27.37 11.168 29.008 9.628 29.008 7.542C29.008 5.932 28.056 4.798 26.544 4.546ZM29.6345 13.52H31.3845C32.9805 11.644 33.7785 9.488 33.7785 7.038C33.7785 4.588 32.9945 2.446 31.3845 0.569998H29.6345C30.9645 2.628 31.6085 4.742 31.6085 7.038C31.6085 9.334 30.9505 11.49 29.6345 13.52Z" fill="#01B574"/>
<path d="M41.4347 11.084C41.7007 11.084 42.0367 11.056 42.3027 11.014V9.67C42.1207 9.698 41.9387 9.712 41.7987 9.712C40.7347 9.712 40.4687 9.11 40.4687 8.466V4.966H42.2607V3.454H40.4687V1.116H38.7887V2.32C38.7887 3.048 38.3687 3.454 37.6407 3.454H37.4167V4.966H38.7887V8.466C38.7887 10.132 39.7407 11.084 41.4347 11.084ZM47.2118 3.286C46.3438 3.286 45.6018 3.608 45.1678 4.196V0.569998H43.4878V11H45.1678V6.52C45.1678 5.498 45.8118 4.84 46.7778 4.84C47.7298 4.84 48.3738 5.498 48.3738 6.52V11H50.0538V6.1C50.0538 4.434 48.8918 3.286 47.2118 3.286ZM54.5925 3.286C53.0945 3.286 51.8345 4.084 51.4005 5.232L52.8565 5.96C53.1365 5.246 53.7805 4.798 54.5925 4.798C55.4325 4.798 56.0065 5.26 56.0065 5.96V6.198L53.5285 6.73C52.0025 7.066 51.1205 7.808 51.1205 8.928C51.1205 10.216 52.1845 11.168 53.8645 11.168C54.7745 11.168 55.5445 10.832 56.1045 10.16V11H57.6865V5.96C57.6865 4.392 56.4265 3.286 54.5925 3.286ZM54.0605 9.838C53.3325 9.838 52.8705 9.488 52.8705 8.914C52.8705 8.452 53.2345 8.088 53.8645 7.948L56.0065 7.472V7.962C56.0065 9.026 55.1805 9.838 54.0605 9.838ZM62.7567 3.286C61.8187 3.286 61.0347 3.664 60.6147 4.364V3.454H59.0327V11H60.7127V6.52C60.7127 5.498 61.3567 4.84 62.3227 4.84C63.2747 4.84 63.9187 5.498 63.9187 6.52V11H65.5987V6.1C65.5987 4.448 64.4367 3.286 62.7567 3.286ZM69.5464 11H71.2264V0.569998H69.5464V11ZM75.8933 3.286C74.3953 3.286 73.1353 4.084 72.7013 5.232L74.1573 5.96C74.4373 5.246 75.0813 4.798 75.8933 4.798C76.7333 4.798 77.3073 5.26 77.3073 5.96V6.198L74.8293 6.73C73.3033 7.066 72.4213 7.808 72.4213 8.928C72.4213 10.216 73.4853 11.168 75.1653 11.168C76.0753 11.168 76.8453 10.832 77.4053 10.16V11H78.9873V5.96C78.9873 4.392 77.7273 3.286 75.8933 3.286ZM75.3613 9.838C74.6333 9.838 74.1713 9.488 74.1713 8.914C74.1713 8.452 74.5353 8.088 75.1653 7.948L77.3073 7.472V7.962C77.3073 9.026 76.4813 9.838 75.3613 9.838ZM83.1895 11.168C84.9115 11.168 86.1015 10.244 86.1015 8.886C86.1015 7.836 85.4015 7.08 84.0995 6.716L82.7555 6.338C82.3215 6.212 81.8455 5.974 81.8455 5.498C81.8455 5.022 82.2795 4.7 82.9795 4.7C83.8335 4.7 84.5055 5.134 84.7855 5.848L86.1015 5.232C85.6395 4.028 84.4635 3.286 82.9795 3.286C81.3135 3.286 80.1795 4.21 80.1795 5.568C80.1795 6.59 80.8375 7.36 82.1535 7.724L83.4415 8.06C83.9035 8.186 84.4355 8.41 84.4355 8.928C84.4355 9.446 83.9455 9.796 83.1895 9.796C82.2935 9.796 81.5515 9.32 81.1595 8.424L79.8575 9.054C80.3335 10.37 81.6215 11.168 83.1895 11.168ZM90.6535 11.084C90.9195 11.084 91.2555 11.056 91.5215 11.014V9.67C91.3395 9.698 91.1575 9.712 91.0175 9.712C89.9535 9.712 89.6875 9.11 89.6875 8.466V4.966H91.4795V3.454H89.6875V1.116H88.0075V2.32C88.0075 3.048 87.5875 3.454 86.8595 3.454H86.6355V4.966H88.0075V8.466C88.0075 10.132 88.9595 11.084 90.6535 11.084ZM104.477 3.454L102.895 8.522L101.299 3.454H99.4375L97.8415 8.522L96.2455 3.454H94.4675L97.0715 11H98.5835L100.375 5.596L102.153 11H103.651L106.269 3.454H104.477ZM114.02 6.954C114.02 4.952 112.508 3.286 110.38 3.286C108.252 3.286 106.642 4.952 106.642 7.22C106.642 9.432 108.224 11.168 110.506 11.168C112.046 11.168 113.278 10.384 113.74 9.306L112.354 8.634C112.018 9.25 111.416 9.684 110.52 9.684C109.358 9.684 108.476 8.914 108.392 7.71H113.936C113.992 7.486 114.02 7.22 114.02 6.954ZM108.42 6.408C108.616 5.302 109.4 4.686 110.38 4.686C111.346 4.686 112.158 5.4 112.214 6.408H108.42ZM122.045 6.954C122.045 4.952 120.533 3.286 118.405 3.286C116.277 3.286 114.667 4.952 114.667 7.22C114.667 9.432 116.249 11.168 118.531 11.168C120.071 11.168 121.303 10.384 121.765 9.306L120.379 8.634C120.043 9.25 119.441 9.684 118.545 9.684C117.383 9.684 116.501 8.914 116.417 7.71H121.961C122.017 7.486 122.045 7.22 122.045 6.954ZM116.445 6.408C116.641 5.302 117.425 4.686 118.405 4.686C119.371 4.686 120.183 5.4 120.239 6.408H116.445ZM129.819 3.454H127.845L124.793 6.702V0.569998H123.113V11H124.793V8.97L125.969 7.696L127.957 11H129.819L127.061 6.492L129.819 3.454Z" fill="#A0AEC0"/>
</svg>
